# xmcd
#
# Track frame offsets: 
#        150
#        11281
#        20756
#        31178
#        41962
#        52527
#        63656
#        75414
#        85751
#        94499
#
# Disc length: 1402 seconds
#
# Revision: 0
# Processed by: cddbd v1.5.2PL0 Copyright (c) Steve Scherf et al.
# Submitted via: ExactAudioCopy v0.95b3
#
DISCID=6f05780a
DTITLE=Patsy Cline  - Stop The World And Let Me Off  1966
DYEAR=1900
DGENRE=
TTITLE0=Stop The World and Let Me Off
TTITLE1=I'm Moving Along
TTITLE2=How Can I Face Tomorrow
TTITLE3=Gotta A Lot Of Rhythm In My Soul
TTITLE4=I Cried All The Way To the Alter
TTITLE5=There He Goes
TTITLE6=Crazy Dreams
TTITLE7=Stop, Look and Listen
TTITLE8=Try Again
TTITLE9=Honk Tonk Merry Go Round
EXTD=
EXTT0=
EXTT1=
EXTT2=
EXTT3=
EXTT4=
EXTT5=
EXTT6=
EXTT7=
EXTT8=
EXTT9=
PLAYORDER=
